<svg xmlns="http://www.w3.org/2000/svg" viewBox="0 0 100 60" width="100" height="60">
  <rect width="100" height="60" fill="#FFFFFF"/>
  <rect width="100" height="4.6" fill="#B22234"/>
  <rect y="9.2" width="100" height="4.6" fill="#B22234"/>
  <rect y="18.4" width="100" height="4.6" fill="#B22234"/>
  <rect y="27.6" width="100" height="4.6" fill="#B22234"/>
  <rect y="36.8" width="100" height="4.6" fill="#B22234"/>
  <rect y="46" width="100" height="4.6" fill="#B22234"/>
  <rect y="55.2" width="100" height="4.6" fill="#B22234"/>
  <rect width="40" height="32.3" fill="#3C3B6E"/>
  <g fill="#FFFFFF">
    <circle cx="5" cy="4" r="1.5"/>
    <circle cx="15" cy="4" r="1.5"/>
    <circle cx="25" cy="4" r="1.5"/>
    <circle cx="35" cy="4" r="1.5"/>
    <circle cx="10" cy="8" r="1.5"/>
    <circle cx="20" cy="8" r="1.5"/>
    <circle cx="30" cy="8" r="1.5"/>
    <circle cx="5" cy="12" r="1.5"/>
    <circle cx="15" cy="12" r="1.5"/>
    <circle cx="25" cy="12" r="1.5"/>
    <circle cx="35" cy="12" r="1.5"/>
    <circle cx="10" cy="16" r="1.5"/>
    <circle cx="20" cy="16" r="1.5"/>
    <circle cx="30" cy="16" r="1.5"/>
    <circle cx="5" cy="20" r="1.5"/>
    <circle cx="15" cy="20" r="1.5"/>
    <circle cx="25" cy="20" r="1.5"/>
    <circle cx="35" cy="20" r="1.5"/>
    <circle cx="10" cy="24" r="1.5"/>
    <circle cx="20" cy="24" r="1.5"/>
    <circle cx="30" cy="24" r="1.5"/>
    <circle cx="5" cy="28" r="1.5"/>
    <circle cx="15" cy="28" r="1.5"/>
    <circle cx="25" cy="28" r="1.5"/>
    <circle cx="35" cy="28" r="1.5"/>
  </g>
</svg>
