<?xml version="1.0" encoding="UTF-8"?>
<svg xmlns="http://www.w3.org/2000/svg" width="800" height="480" viewBox="0 0 800 480">
  <rect width="800" height="480" fill="#ffffff"/>
  <rect width="267" height="480" fill="#006847" x="0" y="0"/>
  <rect width="266" height="480" fill="#ce1126" x="534" y="0"/>
  <g transform="translate(400, 240)">
    <path fill="#8C6239" d="M-40 -15 h80 v50 h-80z"/>
    <path fill="#006847" d="M0 -30 C-5 -30, -15 -15, 0 0 C15 -15, 5 -30, 0 -30z"/>
    <circle cx="0" cy="0" r="20" fill="#8C6239"/>
    <path fill="#006847" d="M-10 -5 C-10 -15, 10 -15, 10 -5 C15 -5, 15 5, 10 5 C10 15, -10 15, -10 5 C-15 5, -15 -5, -10 -5z"/>
  </g>
</svg>
